PathFileType	4	(X/Y/Z)	/Users/visionmauri/Downloads/Videos/OAW01-top_Sports2D/OAW01-top_Sports2D_px_person00.trc
DataRate	CameraRate	NumFrames	NumMarkers	Units	OrigDataRate	OrigDataStartFrame	OrigNumFrames
26.0	26.0	4	22	m	26.0	1271	2035
Frame#	Time	Hip			RHip			RKnee			RAnkle			RBigToe			RSmallToe			RHeel			LHip			LKnee			LAnkle			LBigToe			LSmallToe			LHeel			Neck			Head			Nose			RShoulder			RElbow			RWrist			LShoulder			LElbow			LWrist			
		X1	Y1	Z1	X2	Y2	Z2	X3	Y3	Z3	X4	Y4	Z4	X5	Y5	Z5	X6	Y6	Z6	X7	Y7	Z7	X8	Y8	Z8	X9	Y9	Z9	X10	Y10	Z10	X11	Y11	Z11	X12	Y12	Z12	X13	Y13	Z13	X14	Y14	Z14	X15	Y15	Z15	X16	Y16	Z16	X17	Y17	Z17	X18	Y18	Z18	X19	Y19	Z19	X20	Y20	Z20	X21	Y21	Z21	X22	Y22	Z22
1271	48.90864911882612	509.86202387679265	1150.5063653476138	0.0	563.7711071178569	1151.5514875565577	0.0	505.58913900827804	1298.472654000872	0.0	517.7394534064825	1463.3291364206325	0.0	419.50771186090185	1475.7526112169435	0.0	456.36811522168614	1481.0612179123996	0.0	519.9760125877826	1499.4974787797205	0.0	457.40810298722846	1169.361183121716	0.0	458.79922622852456	1382.928070525322	0.0	482.5598654700382	1608.0953414461744	0.0	437.9816849519576	1582.5652471768917	0.0	419.3266925250041	1619.403319315961	0.0	495.20638521364083	1646.4375957251991	0.0	461.47990182560545	799.4730308652643	0.0	425.37978641222054	671.251751479663	0.0	413.0351296884663	759.1053931517897	0.0	569.885205136465	841.119596686993	0.0	607.1481579889997	999.6020414587538	0.0	591.2213989622435	1089.1045874222243	0.0	374.1303445801936	881.5759062634345	0.0	327.4348090734052	1051.4239209270982	0.0	298.5356316710934	1185.4967652031348	0.0
1272	48.9471295665986	507.6276977139449	1155.7409784779884	0.0	563.2803257392836	1163.3143338038558	0.0	516.9501097878837	1309.857287684668	0.0	520.8549455730487	1467.3046048321046	0.0	435.9876134974991	1468.0226746423323	0.0	504.8153316508279	1479.5190026150751	0.0	518.6135969366316	1502.2277527682215	0.0	452.47450588344344	1179.3731852992244	0.0	456.5113262496235	1391.3765837986498	0.0	481.6196444622775	1609.0268964639629	0.0	448.53799207923936	1592.8601469534096	0.0	422.5637540681564	1621.8310747267149	0.0	492.17695230674525	1650.913810556802	0.0	459.3305452349773	800.1995298466717	0.0	428.6665021601846	675.7959826289303	0.0	412.3781929971458	761.3390438145453	0.0	572.224355570817	844.7611164902696	0.0	615.9214194612002	997.462165345616	0.0	613.976651730607	1099.5189770994155	0.0	366.736669691933	881.5885951181501	0.0	316.79066801063067	1046.282913247465	0.0	282.953441811126	1175.1485519922553	0.0
1273	48.98561001437108	506.9469708764385	1158.1217896305102	0.0	564.8239099891314	1170.4267023835075	0.0	523.5191914800592	1318.5725040881364	0.0	522.5478105558881	1474.709815273901	0.0	459.5415288875455	1465.6344420482242	0.0	533.3879438647992	1476.1981451436163	0.0	519.0978694159552	1507.266037551352	0.0	450.35259808746224	1186.2305329318954	0.0	456.020775931027	1396.2685723836719	0.0	482.22461994335623	1609.737855094878	0.0	452.5180048944454	1597.6724002485316	0.0	427.3693014162975	1625.2393214551325	0.0	493.38824667181535	1652.8930238520736	0.0	458.13373593036926	801.0941784219783	0.0	431.64965980018786	680.7367419917585	0.0	411.9533540352009	764.7399570002891	0.0	573.8960190418841	848.5069752179468	0.0	623.1978273274882	992.1960396817993	0.0	632.2489303347395	1104.409060661844	0.0	362.9559418486491	881.3212432304889	0.0	310.1621402443966	1041.6009347091099	0.0	268.7681867869476	1163.693464656072	0.0
1274	49.02409046214357	507.8474364082957	1160.3887732860471	0.0	567.6088082565271	1173.197808721344	0.0	526.0526979686126	1323.5650646617744	0.0	525.3285063332486	1482.9842681237662	0.0	481.0207112264958	1468.9279110612429	0.0	537.9254829528098	1474.5592607228878	0.0	523.07432916525	1515.8884004237138	0.0	450.24060561386983	1189.2083221328485	0.0	456.02877270757665	1398.3278961465862	0.0	482.2286830293197	1611.539352582913	0.0	450.75466646088597	1597.6415446892836	0.0	429.52033380208616	1625.5443627236798	0.0	494.7935413689293	1652.998269660275	0.0	457.70727144802845	801.6087749526449	0.0	433.8322077553542	683.4546138064774	0.0	412.4131420560773	767.3497902258217	0.0	575.4036465476331	852.7721524571557	0.0	628.4231885674384	992.2769623462868	0.0	645.7347565990642	1109.6152013586377	0.0	361.9943396406676	881.6075440645496	0.0	307.0777613044745	1037.544793125165	0.0	258.08970628078066	1152.981160579351	0.0
